<mxfile host="app.diagrams.net" agent="Mozilla/5.0 (X11; Ubuntu; Linux x86_64; rv:143.0) Gecko/20100101 Firefox/143.0" version="28.2.5">
  <diagram name="Page-1" id="SrQeksRvBIzcCES60Ik3">
    <mxGraphModel dx="1240" dy="718" grid="1" gridSize="10" guides="1" tooltips="1" connect="1" arrows="1" fold="1" page="1" pageScale="1" pageWidth="827" pageHeight="1169" math="0" shadow="0">
      <root>
        <mxCell id="0" />
        <mxCell id="1" parent="0" />
        <mxCell id="4r2X5L9g-t0mAyMvK6OW-1" value="" style="endArrow=none;html=1;rounded=0;" edge="1" parent="1">
          <mxGeometry width="50" height="50" relative="1" as="geometry">
            <mxPoint x="114" y="80" as="sourcePoint" />
            <mxPoint x="714" y="80" as="targetPoint" />
          </mxGeometry>
        </mxCell>
        <mxCell id="4r2X5L9g-t0mAyMvK6OW-2" value="" style="endArrow=none;html=1;rounded=0;" edge="1" parent="1">
          <mxGeometry width="50" height="50" relative="1" as="geometry">
            <mxPoint x="434" y="40" as="sourcePoint" />
            <mxPoint x="434" y="800" as="targetPoint" />
          </mxGeometry>
        </mxCell>
        <mxCell id="4r2X5L9g-t0mAyMvK6OW-3" value="Client" style="text;html=1;align=center;verticalAlign=middle;whiteSpace=wrap;rounded=0;fontStyle=0;fontSize=19;" vertex="1" parent="1">
          <mxGeometry x="244" y="40" width="60" height="40" as="geometry" />
        </mxCell>
        <mxCell id="4r2X5L9g-t0mAyMvK6OW-4" value="Server" style="text;html=1;align=center;verticalAlign=middle;whiteSpace=wrap;rounded=0;fontStyle=0;fontSize=19;" vertex="1" parent="1">
          <mxGeometry x="524" y="40" width="60" height="40" as="geometry" />
        </mxCell>
        <mxCell id="4r2X5L9g-t0mAyMvK6OW-7" style="edgeStyle=orthogonalEdgeStyle;rounded=0;orthogonalLoop=1;jettySize=auto;html=1;" edge="1" parent="1" source="4r2X5L9g-t0mAyMvK6OW-5" target="4r2X5L9g-t0mAyMvK6OW-6">
          <mxGeometry relative="1" as="geometry" />
        </mxCell>
        <mxCell id="4r2X5L9g-t0mAyMvK6OW-5" value="" style="ellipse;fillColor=strokeColor;html=1;" vertex="1" parent="1">
          <mxGeometry x="149" y="145" width="30" height="30" as="geometry" />
        </mxCell>
        <mxCell id="4r2X5L9g-t0mAyMvK6OW-6" value="&lt;div&gt;Request to&lt;/div&gt;&lt;div&gt;/auth/refresh/&lt;/div&gt;" style="html=1;align=center;verticalAlign=middle;rounded=1;absoluteArcSize=1;arcSize=10;dashed=0;whiteSpace=wrap;" vertex="1" parent="1">
          <mxGeometry x="224" y="135" width="130" height="50" as="geometry" />
        </mxCell>
        <mxCell id="4r2X5L9g-t0mAyMvK6OW-11" style="edgeStyle=orthogonalEdgeStyle;rounded=0;orthogonalLoop=1;jettySize=auto;html=1;" edge="1" parent="1" source="4r2X5L9g-t0mAyMvK6OW-9" target="4r2X5L9g-t0mAyMvK6OW-13">
          <mxGeometry relative="1" as="geometry">
            <mxPoint x="479" y="145" as="targetPoint" />
          </mxGeometry>
        </mxCell>
        <mxCell id="4r2X5L9g-t0mAyMvK6OW-9" value="" style="rounded=0;whiteSpace=wrap;html=1;" vertex="1" parent="1">
          <mxGeometry x="354" y="153.75" width="20" height="20" as="geometry" />
        </mxCell>
        <mxCell id="4r2X5L9g-t0mAyMvK6OW-12" value="refresh-token" style="text;html=1;align=center;verticalAlign=middle;whiteSpace=wrap;rounded=0;" vertex="1" parent="1">
          <mxGeometry x="354" y="123.75" width="86" height="30" as="geometry" />
        </mxCell>
        <mxCell id="4r2X5L9g-t0mAyMvK6OW-15" value="[No]" style="rounded=0;orthogonalLoop=1;jettySize=auto;html=1;" edge="1" parent="1" source="4r2X5L9g-t0mAyMvK6OW-13" target="4r2X5L9g-t0mAyMvK6OW-14">
          <mxGeometry relative="1" as="geometry" />
        </mxCell>
        <mxCell id="4r2X5L9g-t0mAyMvK6OW-36" value="[Yes]" style="edgeStyle=orthogonalEdgeStyle;rounded=0;orthogonalLoop=1;jettySize=auto;html=1;" edge="1" parent="1" source="4r2X5L9g-t0mAyMvK6OW-13" target="4r2X5L9g-t0mAyMvK6OW-57">
          <mxGeometry relative="1" as="geometry">
            <mxPoint x="662" y="320" as="targetPoint" />
          </mxGeometry>
        </mxCell>
        <mxCell id="4r2X5L9g-t0mAyMvK6OW-13" value="&lt;div&gt;Is refresh-token&lt;/div&gt;&lt;div&gt;existant,&lt;/div&gt;&lt;div&gt;non-expired,&lt;/div&gt;&lt;div&gt;non-invalidated?&lt;/div&gt;" style="rhombus;whiteSpace=wrap;html=1;spacingTop=5;" vertex="1" parent="1">
          <mxGeometry x="584" y="87.5" width="156" height="152.5" as="geometry" />
        </mxCell>
        <mxCell id="4r2X5L9g-t0mAyMvK6OW-17" style="edgeStyle=orthogonalEdgeStyle;rounded=0;orthogonalLoop=1;jettySize=auto;html=1;" edge="1" parent="1" source="4r2X5L9g-t0mAyMvK6OW-14" target="4r2X5L9g-t0mAyMvK6OW-16">
          <mxGeometry relative="1" as="geometry" />
        </mxCell>
        <mxCell id="4r2X5L9g-t0mAyMvK6OW-14" value="Return status 401" style="html=1;align=center;verticalAlign=middle;rounded=1;absoluteArcSize=1;arcSize=10;dashed=0;whiteSpace=wrap;" vertex="1" parent="1">
          <mxGeometry x="454" y="240" width="126" height="50" as="geometry" />
        </mxCell>
        <mxCell id="4r2X5L9g-t0mAyMvK6OW-16" value="" style="shape=sumEllipse;perimeter=ellipsePerimeter;html=1;backgroundOutline=1;" vertex="1" parent="1">
          <mxGeometry x="354" y="250" width="30" height="30" as="geometry" />
        </mxCell>
        <mxCell id="4r2X5L9g-t0mAyMvK6OW-59" style="edgeStyle=orthogonalEdgeStyle;rounded=0;orthogonalLoop=1;jettySize=auto;html=1;" edge="1" parent="1" source="4r2X5L9g-t0mAyMvK6OW-57" target="4r2X5L9g-t0mAyMvK6OW-58">
          <mxGeometry relative="1" as="geometry" />
        </mxCell>
        <mxCell id="4r2X5L9g-t0mAyMvK6OW-57" value="Create new JWT and new refresh-token" style="html=1;align=center;verticalAlign=middle;rounded=1;absoluteArcSize=1;arcSize=10;dashed=0;whiteSpace=wrap;" vertex="1" parent="1">
          <mxGeometry x="586.5" y="330" width="151" height="60" as="geometry" />
        </mxCell>
        <mxCell id="4r2X5L9g-t0mAyMvK6OW-61" style="edgeStyle=orthogonalEdgeStyle;rounded=0;orthogonalLoop=1;jettySize=auto;html=1;" edge="1" parent="1" source="4r2X5L9g-t0mAyMvK6OW-58" target="4r2X5L9g-t0mAyMvK6OW-60">
          <mxGeometry relative="1" as="geometry" />
        </mxCell>
        <mxCell id="4r2X5L9g-t0mAyMvK6OW-58" value="Save new refresh-token" style="html=1;align=center;verticalAlign=middle;rounded=1;absoluteArcSize=1;arcSize=10;dashed=0;whiteSpace=wrap;" vertex="1" parent="1">
          <mxGeometry x="586.5" y="430" width="151" height="40" as="geometry" />
        </mxCell>
        <mxCell id="4r2X5L9g-t0mAyMvK6OW-63" style="edgeStyle=orthogonalEdgeStyle;rounded=0;orthogonalLoop=1;jettySize=auto;html=1;" edge="1" parent="1" source="4r2X5L9g-t0mAyMvK6OW-60" target="4r2X5L9g-t0mAyMvK6OW-62">
          <mxGeometry relative="1" as="geometry" />
        </mxCell>
        <mxCell id="4r2X5L9g-t0mAyMvK6OW-60" value="Return both tokens" style="html=1;align=center;verticalAlign=middle;rounded=1;absoluteArcSize=1;arcSize=10;dashed=0;whiteSpace=wrap;" vertex="1" parent="1">
          <mxGeometry x="586.5" y="510" width="151" height="40" as="geometry" />
        </mxCell>
        <mxCell id="4r2X5L9g-t0mAyMvK6OW-62" value="" style="shape=sumEllipse;perimeter=ellipsePerimeter;html=1;backgroundOutline=1;" vertex="1" parent="1">
          <mxGeometry x="354" y="515" width="30" height="30" as="geometry" />
        </mxCell>
      </root>
    </mxGraphModel>
  </diagram>
</mxfile>
